<svg fill="none" height="43" viewBox="0 0 115 43" width="115" xmlns="http://www.w3.org/2000/svg" xmlns:xlink="http://www.w3.org/1999/xlink"><mask id="a" height="11" maskUnits="userSpaceOnUse" width="7" x="51" y="0"><path clip-rule="evenodd" d="m51.6885.728027h5.3613v10.037373h-5.3613z" fill="#fff" fill-rule="evenodd"/></mask><mask id="b" height="11" maskUnits="userSpaceOnUse" width="6" x="57" y="0"><path clip-rule="evenodd" d="m57.5984.728027h5.3621v10.037373h-5.3621z" fill="#fff" fill-rule="evenodd"/></mask><path clip-rule="evenodd" d="m48.3295 13.0423c2.2221.8481 3.6942 2.2574 3.6942 2.2574.0168-.6843.1944-1.3875.4507-1.9829 0 0-.7113-1.3278-2.8103-2.7662-2.2541-1.54544-4.8271-1.97638-4.8271-1.97638-.525 1.13923-.8977 2.36218-1.0914 3.64338 0 0 1.8828-.2053 4.5839.8247z" fill="#0c294e" fill-rule="evenodd"/><path clip-rule="evenodd" d="m49.9254 8.55568c2.1202 2.04992 2.8861 4.10992 2.8861 4.10992.3924-.6289.9137-1.1705 1.5289-1.5898 0 0-.787-2.47135-2.0619-4.29703-1.2748-1.82496-3.3403-3.34054-3.3403-3.34054-1.0084.77745-1.9061 1.69029-2.6633 2.71159 0 0 2.1027.90848 3.6505 2.40586z" fill="#0c294e" fill-rule="evenodd"/><g mask="url(#a)"><path clip-rule="evenodd" d="m53.655 5.99591c.9574 2.44808 1.2013 4.76949 1.2013 4.76949.629-.3319 1.4459-.5882 2.1929-.6493 0 0 .0379-2.3622-.482-4.7899-.6086-2.83752-1.3032-4.598417-1.3032-4.598417-1.2559.192905-2.4558.554697-3.5755 1.060617 0 0 1.3047 2.5165 1.9665 4.20751z" fill="#0c294e" fill-rule="evenodd"/></g><path clip-rule="evenodd" d="m66.3194 13.0423c-2.2227.8481-3.6942 2.2574-3.6942 2.2574-.0167-.6843-.1944-1.3875-.4506-1.9829 0 0 .7113-1.3278 2.8096-2.7662 2.2548-1.54544 4.8278-1.97638 4.8278-1.97638.5256 1.13923.8969 2.36218 1.0906 3.64338 0 0-1.882-.2053-4.5832.8247z" fill="#0c294e" fill-rule="evenodd"/><path clip-rule="evenodd" d="m64.7231 8.55568c-2.1194 2.04992-2.8861 4.10992-2.8861 4.10992-.3917-.6289-.9137-1.1705-1.5289-1.5898 0 0 .787-2.47135 2.0626-4.29703 1.2749-1.82496 3.3397-3.34054 3.3397-3.34054 1.0083.77745 1.906 1.69029 2.6639 2.71159 0 0-2.1033.90848-3.6512 2.40586z" fill="#0c294e" fill-rule="evenodd"/><g mask="url(#b)"><path clip-rule="evenodd" d="m60.994 5.99591c-.9582 2.44808-1.2013 4.76949-1.2013 4.76949-.6291-.3319-1.446-.5882-2.1937-.6493 0 0-.0379-2.3622.4827-4.7899.6087-2.83752 1.3025-4.598417 1.3025-4.598417 1.2567.192905 2.4565.554697 3.5763 1.060617 0 0-1.3054 2.5165-1.9665 4.20751z" fill="#0c294e" fill-rule="evenodd"/></g><g clip-rule="evenodd" fill="#0c294e" fill-rule="evenodd"><path d="m50.1729 21.3771c2.648-1.2608 5.3185-1.0002 5.3185-1.0002-.9479-.3523-1.7677-.9623-2.372-1.7427 0 0-2.3713-.2831-4.1886.083-2.7506.5547-3.9694 1.5098-3.9694 1.5098.5585 1.1487 1.2741 2.2071 2.1187 3.1498 0 0 1.1358-1.0679 3.0928-1.9997z"/><path d="m48.1146 17.386c2.6996-.1295 4.562.5758 4.562.5758-.3349-.6034-.554-1.2782-.6276-1.9953 0 0-2.1441-1.2214-4.1208-1.4864-2.7361-.3669-4.3313.1579-4.3313.1579.035 1.2958.2505 2.5471.6225 3.7293 0 0 1.7532-.8786 3.8952-.9813z"/><path d="m57.3242 23.444c3.8645 0 5.5551 3.3442 5.5551 3.3442 1.2057-.5351 2.3189-1.2361 3.3105-2.0732 0 0-3.2646-4.1064-8.8656-4.1064-5.6003 0-8.8657 4.1064-8.8657 4.1064.9931.8371 2.1063 1.5381 3.3112 2.0732 0 0 1.6899-3.3442 5.5545-3.3442z"/><path d="m64.4757 21.3771c-2.6479-1.2608-5.3192-1.0002-5.3192-1.0002.9487-.3523 1.7685-.9623 2.3728-1.7427 0 0 2.3713-.2831 4.1885.083 2.7507.5547 3.9702 1.5098 3.9702 1.5098-.5592 1.1487-1.2749 2.2071-2.1202 3.1498 0 0-1.135-1.0679-3.0921-1.9997z"/><path d="m66.5342 17.386c-2.7004-.1295-4.562.5758-4.562.5758.3349-.6034.5533-1.2782.6276-1.9953 0 0 2.1441-1.2214 4.1208-1.4864 2.7361-.3669 4.3313.1579 4.3313.1579-.035 1.2958-.2505 2.5471-.6225 3.7293 0 0-1.7539-.8786-3.8952-.9813z"/><path d="m3.11281 31.9579v4.8911h2.06334c2.18638 0 3.13432-.8561 3.13432-2.4459 0-1.5891-.93265-2.4452-3.13432-2.4452zm0 9.2471h1.42191v1.1152h-4.112113v-1.1152h1.421183v-9.2922h-1.421183v-1.1167h4.753543c2.62977 0 4.40261 1.1466 4.40261 3.607 0 2.4612-1.78813 3.607-4.40261 3.607h-2.06334z"/><path d="m17.2393 37.7501c.0153-1.5585-1.162-2.7509-2.7361-2.7509-1.5748 0-2.7521 1.1924-2.7368 2.7509zm.9785 2.2166c-.3669 1.437-1.7124 2.5369-3.7146 2.5369-2.4769 0-3.9898-1.5585-3.9898-4.3101 0-2.6126 1.5741-4.3102 3.9898-4.3102 2.6138 0 4.2803 2.0026 3.944 4.9675h-6.6655c.107 1.2688.9938 2.5376 2.7215 2.5376 1.146 0 1.9869-.4739 2.415-1.4217z"/><path d="m22.6679 41.2507h1.3149v1.0701h-3.8522v-1.0701h1.3142v-6.1132h-1.3142v-1.0701h1.3142 1.1314v1.1764c.4892-.886 1.6971-1.7122 3.3171-1.1618v1.1931c-1.9411-.5504-3.2254.519-3.2254 2.4138z"/><path d="m35.5402 41.2507h1.3149v1.07h-3.8522v-1.07h1.3141v-3.4847c0-1.9407-1.1612-2.7509-2.4303-2.7509-1.269 0-2.3538.8859-2.3538 2.8273v3.4083h1.3142v1.07h-3.8522v-1.07h1.3149v-6.1133h-1.3149v-1.0701h1.3149 1.1314v1.1764c.4426-.6872 1.3906-1.3453 2.6749-1.3453 1.8187 0 3.4241 1.0395 3.4241 3.8676z"/><path d="m41.9779 41.3886c1.6054 0 2.7972-1.1319 2.7972-3.1949s-1.1918-3.1942-2.7972-3.1942-2.7972 1.1312-2.7972 3.1942 1.1918 3.1949 2.7972 3.1949zm0-7.5051c2.5373 0 4.0204 1.8192 4.0204 4.3102s-1.4831 4.3102-4.0204 4.3102-4.0204-1.8192-4.0204-4.3102 1.4831-4.3102 4.0204-4.3102z"/><path d="m48.6904 38.1939c0 2.0943 1.2385 3.1949 2.7667 3.1949 1.5289 0 2.7674-1.1006 2.7674-3.1949s-1.2385-3.1949-2.7674-3.1949c-1.5282 0-2.7667 1.1006-2.7667 3.1949zm6.7106 3.0566h1.3149v1.0701h-2.4914v-1.1763c-.4893.7337-1.5596 1.3598-2.8744 1.3598-2.3539 0-3.8828-1.849-3.8828-4.3102s1.5289-4.3102 3.8828-4.3102c1.2384 0 2.3239.5504 2.8285 1.3598v-3.3922h-1.3149v-1.0708h2.5373z"/><path d="m64.9272 31.9581v4.2796h2.7062c1.7277 0 2.4761-.8561 2.4761-2.1402 0-1.2833-.7338-2.1394-2.4761-2.1394zm-2.7055-1.1771h5.4117c2.1704 0 3.7605 1.1618 3.7605 3.3165 0 1.8344-1.162 2.9504-2.8431 3.2408l1.8798 3.8516h1.4984v1.1305h-2.4005l-2.3691-4.9056h-2.2322v3.7904h1.269v1.1152h-3.9745v-1.1152h1.4212v-9.3083h-1.4212z"/><path d="m74.5907 32.3252h1.3913v-1.544h-1.3913zm1.3753 8.9253h1.3149v1.0701h-3.8522v-1.0701h1.3149v-6.1132h-1.3149v-1.0701h1.3149 1.2224z"/><path d="m86.4386 39.3099c-.4739 1.8795-1.7429 3.1942-3.989 3.1942-2.5388 0-4.0211-1.8191-4.0211-4.3102 0-2.491 1.4823-4.3101 4.0211-4.3101 1.1765 0 2.2461.5649 2.7353 1.3598v-1.1764h1.178v3.0108h-1.3309c-.3669-1.1159-1.1154-2.079-2.5824-2.079-1.6061 0-2.798 1.132-2.798 3.1949 0 2.063 1.1919 3.1943 2.798 3.1943 1.3906 0 2.3378-.8408 2.72-2.0783z"/><path d="m89.1306 38.1939c0 2.0943 1.2377 3.195 2.7667 3.195 1.5282 0 2.7673-1.1007 2.7673-3.195s-1.2391-3.1949-2.7673-3.1949c-1.529 0-2.7667 1.1006-2.7667 3.1949zm5.4882-4.1267h2.4914v1.0701h-1.3149v6.1133h1.3149v1.0701h-2.4914v-1.1764c-.5046.8095-1.5901 1.3598-2.8286 1.3598-2.3538 0-3.8827-1.849-3.8827-4.3102 0-2.4611 1.5289-4.3101 3.8827-4.3101 1.2385 0 2.324.5503 2.8286 1.3598z"/><path d="m101.423 41.2507h1.314v1.0701h-3.852v-1.0701h1.315v-6.1132h-1.315v-1.0701h1.315 1.131v1.1764c.489-.886 1.697-1.7122 3.317-1.1618v1.1931c-1.941-.5504-3.225.519-3.225 2.4138z"/><path d="m106.499 38.1939c0 2.0943 1.237 3.1949 2.766 3.1949s2.768-1.1006 2.768-3.1949-1.239-3.1949-2.768-3.1949-2.766 1.1006-2.766 3.1949zm6.711 3.0566h1.314v1.0701h-2.491v-1.1763c-.489.7337-1.56 1.3598-2.875 1.3598-2.353 0-3.882-1.849-3.882-4.3102s1.529-4.3102 3.882-4.3102c1.239 0 2.324.5504 2.829 1.3598v-3.3922h-1.316v-1.0708h2.539z"/></g></svg>